<svg xmlns="http://www.w3.org/2000/svg" xmlns:xlink="http://www.w3.org/1999/xlink" version="1.1" id="Layer_1" x="0px" y="0px" viewBox="0 0 41 41" enable-background="new 0 0 41 41" xml:space="preserve"><style>.style0{fill:	#FFFFFF;}</style><g><path d="M21.7 19L21.7 19C21.7 19 21.7 19 21.7 19L21.7 19z" class="style0"/><path d="M20.5 0C9.2 0 0 9.2 0 20.5C0 31.8 9.2 41 20.5 41C31.8 41 41 31.8 41 20.5C41 9.2 31.8 0 20.5 0z M14.9 30.3h-4.4V17.1h4.4V30.3z M12.7 15.3L12.7 15.3c-1.5 0-2.5-1-2.5-2.3c0-1.3 1-2.3 2.5-2.3c1.5 0 2.4 1 2.5 2.3 C15.2 14.3 14.2 15.3 12.7 15.3z M30.8 30.3h-4.4v-7.1c0-1.8-0.6-3-2.2-3c-1.2 0-1.9 0.8-2.3 1.6c-0.1 0.3-0.1 0.7-0.1 1.1v7.4 h-4.4c0 0 0.1-12 0-13.2h4.4V19c0.6-0.9 1.6-2.2 4-2.2c2.9 0 5.1 1.9 5.1 5.9V30.3z" class="style0"/></g></svg>