<svg xmlns="http://www.w3.org/2000/svg" xmlns:xlink="http://www.w3.org/1999/xlink" version="1.1" id="Layer_1" x="0px" y="0px" viewBox="0 0 41 41" enable-background="new 0 0 41 41" xml:space="preserve"><style>.style0{fill:	#FFFFFF;}</style><path d="M20.5 0C9.2 0 0 9.2 0 20.5C0 31.8 9.2 41 20.5 41C31.8 41 41 31.8 41 20.5C41 9.2 31.8 0 20.5 0z M28.7 16.3c0 0.2 0 0.4 0 0.5c0 5.6-4.2 12-12 12c-2.4 0-4.6-0.7-6.4-1.9c0.3 0 0.7 0.1 1 0.1c2 0 3.8-0.7 5.2-1.8 c-1.8 0-3.4-1.3-3.9-2.9c0.3 0 0.5 0.1 0.8 0.1c0.4 0 0.8-0.1 1.1-0.1c-1.9-0.4-3.4-2.1-3.4-4.1c0 0 0 0 0-0.1 c0.6 0.3 1.2 0.5 1.9 0.5c-1.1-0.8-1.9-2-1.9-3.5c0-0.8 0.2-1.5 0.6-2.1c2.1 2.5 5.2 4.2 8.7 4.4c-0.1-0.3-0.1-0.6-0.1-1 c0-2.3 1.9-4.2 4.2-4.2c1.2 0 2.3 0.5 3.1 1.3c1-0.2 1.9-0.5 2.7-1c-0.3 1-1 1.8-1.8 2.3c0.9-0.1 1.7-0.3 2.4-0.7 C30.2 15 29.5 15.7 28.7 16.3z" class="style0"/></svg>